# AST/ASF file generated using VICON BodyLanguage
# -----------------------------------------------
:version 1.10
:name VICON
:units
  mass 1.0
  length 0.45
  angle deg
:documentation
   .ast/.asf automatically generated from VICON data using
   VICON BodyBuilder and BodyLanguage model FoxedUp or BRILLIANT.MOD
:root
   order TX TY TZ RX RY RZ
   axis XYZ
   position 0 0 0  
   orientation 0 0 0 
:bonedata
  begin
     id 1 
     name lhipjoint
     direction 0.645893 -0.654526 0.392961 
     length 2.38111 
     axis 0 0 0  XYZ
  end
  begin
     id 2 
     name lfemur
     direction 0.34202 -0.939693 0  
     length 6.6822  
     axis 0 0 20  XYZ
    dof rx ry rz
    limits (-160.0 20.0)
           (-70.0 70.0)
           (-60.0 70.0)
  end
  begin
     id 3 
     name ltibia
     direction 0.34202 -0.939693 0   
     length 6.93904   
     axis 0 0 20   XYZ
    dof rx
    limits (-10.0 170.0)
  end
  begin
     id 4 
     name lfoot
     direction 0.0694967 -0.190941 0.979138   
     length 2.13616   
     axis -90 7.62852e-016 20   XYZ
    dof rx rz
    limits (-45.0 90.0)
           (-70.0 20.0)
  end
  begin
     id 5 
     name ltoes
     direction 1.535e-011 -4.2202e-011 1   
     length 1.07536   
     axis -90 7.62852e-016 20   XYZ
    dof rx
    limits (-90.0 20.0)
  end
  begin
     id 6 
     name rhipjoint
     direction -0.700219 -0.612087 0.367481   
     length 2.54621  
     axis 0 0 0  XYZ 
  end
  begin
     id 7 
     name rfemur
     direction -0.34202 -0.939693 0   
     length 6.55353   
     axis 0 0 -20   XYZ
    dof rx ry rz
    limits (-160.0 20.0)
           (-70.0 70.0)
           (-70.0 60.0)
  end
  begin
     id 8 
     name rtibia
     direction -0.34202 -0.939693 0   
     length 6.8736   
     axis 0 0 -20   XYZ
    dof rx
    limits (-10.0 170.0)
 end
 begin
     id 9 
     name rfoot
     direction -0.0679995 -0.186827 0.980037   
     length 2.1218  
     axis -90 -7.62852e-016 -20   XYZ
    dof rx rz
    limits (-45.0 90.0)
           (-20.0 70.0)
  end
  begin
     id 10 
     name rtoes
     direction -1.53589e-011 -4.21772e-011 1   
     length 1.06864   
     axis -90 -7.62852e-016 -20   XYZ
    dof rx
    limits (-90.0 20.0)
  end
  begin
     id 11 
     name lowerback
     direction -0.0416607 0.996347 -0.0745409   
     length 2.12205   
     axis 0 0 0   XYZ
    dof rx ry rz
    limits (-20.0 45.0)
           (-30.0 30.0)
           (-30.0 30.0)
  end
  begin
     id 12 
     name upperback
     direction -0.000153993 0.999276 -0.0380568   
     length 2.12759   
     axis 0 0 0   XYZ
    dof rx ry rz
    limits (-20.0 45.0)
           (-30.0 30.0)
           (-30.0 30.0)
  end
  begin
     id 13 
     name thorax
     direction 0.0187671 0.999821 -0.00241421   
     length 2.13704   
     axis 0 0 0   XYZ
    dof rx ry rz
    limits (-20.0 45.0)
           (-30.0 30.0)
           (-30.0 30.0)
  end
  begin
     id 14 
     name lowerneck
     direction 0.0268157 0.964865 0.261374   
     length 1.65253   
     axis 0 0 0   XYZ
    dof rx ry rz
    limits (-20.0 45.0)
           (-30.0 30.0)
           (-30.0 30.0)
  end
  begin
     id 15 
     name upperneck
     direction 0.00263774 0.939908 -0.341418   
     length 1.72375   
     axis 0 0 0   XYZ
    dof rx ry rz
    limits (-20.0 45.0)
           (-30.0 30.0)
           (-30.0 30.0)
  end
  begin
     id 16
     name head
     direction -0.00526001 0.989001 -0.147818  
     length 1.74878  
     axis 0 0 0   XYZ
    dof rx ry rz
    limits (-20.0 45.0)
           (-30.0 30.0)
           (-30.0 30.0)
  end
  begin
     id 17 
     name lclavicle
     direction 0.881214 0.461162 -0.103884  
     length 3.25108  
     axis 0 0 0   XYZ
    dof ry rz
    limits (-20.0 10.0)
           (0.0 20.0)
  end
  begin
     id 18 
     name lhumerus
     direction 1 -4.4899e-011 3.38092e-027   
     length 4.87408   
     axis 180 -30 -90   XYZ
    dof rx ry rz
    limits (-60.0 90.0)
           (-90.0 90.0)
           (-90.0 90.0)
  end
  begin
     id 19
     name lradius
     direction 1 -4.48931e-011 9.96288e-027   
     length 2.76729   
     axis 180 -30 -90   XYZ
    dof rx
    limits (-10.0 170.0)
  end
  begin
     id 20
     name lwrist
     direction 1 -4.4896e-011 1.50617e-026   
     length 1.38364   
     axis -9.31234e-015 90 90   XYZ
    dof ry
    limits (-180.0 0.0)
 end
  begin
     id 21 
     name lhand
     direction 1 -4.49038e-011 3.01286e-026   
     length 0.98922   
     axis -1.92217e-014 90 90   XYZ
    dof rx rz
    limits (-90.0 90.0)
           (-45.0 45.0)
  end
  begin
     id 22 
     name lfingers
     direction 1 -4.49051e-011 6.02588e-026   
     length 0.797535   
     axis -3.84436e-014 90 90   XYZ
    dof rx
    limits (0.0 90.0)
  end
  begin
     id 23
     name lthumb
     direction 0.707107 -6.34901e-011 0.707107   
     length 1.14511   
     axis -90 45 2.19363e-014   XYZ
    dof rx rz
    limits (-45.0 45.0)
           (-45.0 45.0)
  end
  begin
     id 24 
     name rclavicle
     direction -0.893894 0.441652 -0.0767889   
     length 3.29361  
     axis 0 0 0   XYZ 
    dof ry rz
    limits (-10.0 20.0)
           (-20.0 0.0)
  end
  begin
     id 25 
     name rhumerus
     direction -1 -4.48945e-011 8.0491e-028  
     length 4.71404   
     axis 180 30 90   XYZ
    dof rx ry rz
    limits (-90.0 60.0)
           (-90.0 90.0)
           (-90.0 90.0)
  end
  begin
     id 26 
     name rradius
     direction -1 -4.48986e-011 9.27795e-027   
     length 2.83468   
     axis 180 30 90   XYZ
    dof rx
    limits (-10.0 170.0)
  end
  begin
     id 27 
     name rwrist
     direction -1 -4.49029e-011 1.5064e-026   
     length 1.41734   
     axis -9.31234e-015 -90 -90   XYZ
    dof ry
    limits (-180.0 0.0)
  end
  begin
     id 28
     name rhand
     direction -1 -4.48857e-011 3.01165e-026   
     length 0.868195   
     axis -1.92217e-014 -90 -90   XYZ
    dof rx rz
    limits (-90.0 90.0)
           (-45.0 45.0)
  end
  begin
     id 29
     name rfingers
     direction -1 -4.49048e-011 6.02585e-026   
     length 0.699961   
     axis -3.84436e-014 -90 -90   XYZ
    dof rx
    limits (0.0 90.0)
  end
  begin
     id 30
     name rthumb
     direction -0.707107 -6.34854e-011 0.707107   
     length 1.00501   
     axis -90 -45 -2.19363e-014   XYZ
    dof rx rz
    limits (-45.0 45.0)
           (-45.0 45.0)
  end
:hierarchy
  begin
    root lhipjoint rhipjoint lowerback
    lhipjoint lfemur
    lfemur ltibia
    ltibia lfoot
    lfoot ltoes
    rhipjoint rfemur
    rfemur rtibia
    rtibia rfoot
    rfoot rtoes
    lowerback upperback
    upperback thorax
    thorax lowerneck lclavicle rclavicle
    lowerneck upperneck
    upperneck head
    lclavicle lhumerus
    lhumerus lradius
    lradius lwrist
    lwrist lhand lthumb
    lhand lfingers
    rclavicle rhumerus
    rhumerus rradius
    rradius rwrist
    rwrist rhand rthumb
    rhand rfingers
  end

#!OML:ASF H:\ManfredObstacles\Project 1\Capture day 2\Session 1\male.ASF
:FULLY-SPECIFIED
:DEGREES
96
root 1.50096 16.3679 -3.23619 -170.754 9.74969 -178.773
lowerback -6.77323 6.19631 -1.41684
upperback -0.695524 8.56693 -3.01263
thorax 3.3069 4.30543 -1.49184
lowerneck -34.6872 -0.538818 0.0585992
upperneck 39.5176 -3.917 1.79276
head 22.294 -1.73466 -0.406793
rclavicle 1.05455e-013 -2.8625e-014
rhumerus -38.6381 18.2283 -97.5079
rradius 84.7595
rwrist 13.1639
rhand -7.17204 -0.827526
rfingers 7.12502
rthumb 18.7054 -29.9482
lclavicle 1.05455e-013 -2.8625e-014
lhumerus -70.5052 -21.6872 84.326
lradius 80.7946
lwrist -17.2912
lhand -9.28337 4.1432
lfingers 7.12502
lthumb 16.6736 33.4471
rfemur 13.8666 3.90861 23.5737
rtibia 19.1417
rfoot 27.5618 -7.30709
rtoes -17.8809
lfemur -37.3605 -3.67115 -15.267
ltibia 25.0171
lfoot 21.4238 7.46938
ltoes -16.9292
97
root 1.48254 16.2828 -3.53827 -171.127 9.89812 -178.801
lowerback -6.7739 6.17747 -1.35446
upperback -0.658897 8.53612 -2.99175
thorax 3.35034 4.28969 -1.50443
lowerneck -34.6565 -0.412093 0.120625
upperneck 39.6537 -3.80855 1.8069
head 22.3826 -1.69465 -0.385093
rclavicle -5.1684e-015 -2.06736e-014
rhumerus -38.9774 17.9525 -97.6248
rradius 84.6132
rwrist 13.1928
rhand -6.98183 -1.0497
rfingers 7.12502
rthumb 18.8883 -30.1526
lclavicle -5.1684e-015 -2.06736e-014
lhumerus -70.5889 -21.5759 84.3418
lradius 80.6146
lwrist -17.3968
lhand -9.34485 4.03459
lfingers 7.12502
lthumb 16.6145 33.3434
rfemur 13.7844 3.93647 23.329
rtibia 21.6177
rfoot 28.3261 -7.40424
rtoes -16.1235
lfemur -36.8328 -2.14009 -16.5593
ltibia 26.3619
lfoot 20.4716 6.0158
ltoes -14.0791
98
root 1.46304 16.1944 -3.83509 -171.571 10.001 -178.874
lowerback -6.68365 6.12506 -1.31571
upperback -0.589699 8.46019 -2.9733
thorax 3.37286 4.25135 -1.51974
lowerneck -34.6304 -0.277698 0.209535
upperneck 39.7497 -3.69309 1.82017
head 22.4429 -1.64588 -0.365035
rclavicle 5.76476e-014 2.62396e-014
rhumerus -39.2797 17.581 -97.7296
rradius 84.3403
rwrist 13.2944
rhand -6.75674 -1.29949
rfingers 7.12502
rthumb 19.1048 -30.3812
lclavicle 5.76476e-014 2.62396e-014
lhumerus -70.5167 -21.3767 84.3424
lradius 80.3053
lwrist -17.5046
lhand -9.41639 3.91073
lfingers 7.12502
lthumb 16.5456 33.2253
rfemur 13.5642 3.88824 23.0324
rtibia 24.4041
rfoot 29.0666 -7.59728
rtoes -14.4679
lfemur -36.2355 -0.913645 -17.7403
ltibia 27.9725
lfoot 18.7382 5.5152
ltoes -11.466
99
root 1.44282 16.1071 -4.12544 -172.065 10.0549 -179.003
lowerback -6.51146 6.03033 -1.32501
upperback -0.492383 8.32985 -2.9558
thorax 3.37088 4.18555 -1.52302
lowerneck -34.6063 -0.125867 0.334501
upperneck 39.817 -3.55442 1.81333
head 22.4808 -1.58458 -0.354435
rclavicle 4.90004e-014 -6.36111e-015
rhumerus -39.5233 17.1047 -97.8292
rradius 83.9103
rwrist 13.5115
rhand -6.50045 -1.55893
rfingers 7.12502
rthumb 19.3512 -30.6161
lclavicle 4.90004e-014 -6.36111e-015
lhumerus -70.2687 -21.0578 84.3424
lradius 79.8577
lwrist -17.5827
lhand -9.48526 3.81315
lfingers 7.12502
lthumb 16.4793 33.1333
rfemur 13.1951 3.79105 22.6859
rtibia 27.4432
rfoot 29.8328 -7.91801
rtoes -12.9829
lfemur -35.572 -0.178728 -18.7423
ltibia 29.7391
lfoot 16.6473 6.12045
ltoes -9.3852
100
root 1.42225 16.024 -4.40817 -172.607 10.06 -179.219
lowerback -6.26193 5.89012 -1.42448
upperback -0.360204 8.14449 -2.93952
thorax 3.34839 4.09145 -1.49026
lowerneck -34.5671 0.0374578 0.466403
upperneck 39.8298 -3.38038 1.79632
head 22.4733 -1.50872 -0.33854
rclavicle 3.37934e-014 -1.27222e-014
rhumerus -39.6882 16.5221 -97.9098
rradius 83.2946
rwrist 13.8684
rhand -6.25226 -1.83906
rfingers 7.12502
rthumb 19.5898 -30.8721
lclavicle 3.37934e-014 -1.27222e-014
lhumerus -69.8021 -20.6054 84.359
lradius 79.2371
lwrist -17.6366
lhand -9.58542 3.75902
lfingers 7.12502
lthumb 16.3828 33.0871
rfemur 12.6642 3.6572 22.2664
rtibia 30.7153
rfoot 30.5408 -8.42721
rtoes -11.7461
lfemur -34.8118 0.057716 -19.6129
ltibia 31.517
lfoot 14.5513 7.59769
ltoes -7.84303
101
root 1.40214 15.9463 -4.68237 -173.188 10.0219 -179.558
lowerback -5.93378 5.70556 -1.65895
upperback -0.204068 7.90971 -2.93935
thorax 3.29058 3.97202 -1.41161
lowerneck -34.5291 0.189565 0.549042
upperneck 39.8215 -3.19614 1.79936
head 22.4525 -1.43317 -0.299743
rclavicle -8.60738e-014 5.64548e-014
rhumerus -39.7901 15.8175 -97.9752
rradius 82.4739
rwrist 14.3734
rhand -6.04095 -2.14878
rfingers 7.12502
rthumb 19.793 -31.161
lclavicle -8.60738e-014 5.64548e-014
lhumerus -69.1166 -20.0293 84.4048
lradius 78.4393
lwrist -17.7
lhand -9.73389 3.79704
lfingers 7.12502
lthumb 16.2399 33.1369
rfemur 11.9497 3.50831 21.7451
rtibia 34.2228
rfoot 31.0572 -9.19023
rtoes -10.8047
lfemur -33.9295 -0.153876 -20.4308
ltibia 33.1429
lfoot 12.5964 9.61985
ltoes -6.63007
102
root 1.38349 15.8749 -4.94784 -173.811 9.9729 -180.108
lowerback -5.5568 5.48487 -2.12182
upperback -0.0160726 7.64631 -2.9837
thorax 3.21631 3.83726 -1.2585
lowerneck -34.5032 0.349698 0.636504
upperneck 39.776 -2.97756 1.78051
head 22.4064 -1.34493 -0.262525
rclavicle -3.78685e-014 4.69132e-014
rhumerus -39.8326 14.9819 -98.0102
rradius 81.4396
rwrist 15.0129
rhand -5.8992 -2.48081
rfingers 7.12502
rthumb 19.9292 -31.4789
lclavicle -3.78685e-014 4.69132e-014
lhumerus -68.1709 -19.3636 84.4847
lradius 77.4357
lwrist -17.7857
lhand -9.95611 3.96366
lfingers 7.12502
lthumb 16.0259 33.3208
rfemur 11.0311 3.35756 21.0175
rtibia 37.9597
rfoot 31.2492 -10.1012
rtoes -10.0904
lfemur -32.887 -0.624289 -21.3768
ltibia 34.4829
lfoot 10.8486 11.791
ltoes -5.57304
103
root 1.36746 15.8092 -5.20388 -174.471 9.94097 -180.906
lowerback -5.13837 5.2505 -2.85831
upperback 0.191602 7.38748 -3.09006
thorax 3.11716 3.70423 -1.0204
lowerneck -34.4656 0.491094 0.685544
upperneck 39.6972 -2.75972 1.77154
head 22.3338 -1.25995 -0.212586
rclavicle 7.45443e-015 -3.97569e-015
rhumerus -39.8496 13.9946 -97.9943
rradius 80.1984
rwrist 15.7347
rhand -5.82772 -2.89013
rfingers 7.12502
rthumb 19.998 -31.8811
lclavicle 7.45443e-015 -3.97569e-015
lhumerus -66.9796 -18.6828 84.6162
lradius 76.2347
lwrist -17.9424
lhand -10.2499 4.30613
lfingers 7.12502
lthumb 15.7429 33.6858
rfemur 9.9066 3.21957 20.0338
rtibia 41.8877
rfoot 30.9964 -11.0824
rtoes -9.57106
lfemur -31.6725 -1.15391 -22.5473
ltibia 35.4549
lfoot 9.29425 13.8522
ltoes -4.34745
104
root 1.35399 15.7493 -5.45017 -175.137 9.95404 -181.879
lowerback -4.71031 5.03117 -3.77499
upperback 0.409445 7.16459 -3.25713
thorax 3.01506 3.58997 -0.741313
lowerneck -34.4486 0.609563 0.701928
upperneck 39.621 -2.56817 1.7835
head 22.2709 -1.18542 -0.153286
rclavicle -4.97956e-014 3.18055e-015
rhumerus -39.8578 12.8707 -97.9211
rradius 78.7654
rwrist 16.4821
rhand -5.85914 -3.39607
rfingers 7.12502
rthumb 19.9678 -32.3902
lclavicle -4.97956e-014 3.18055e-015
lhumerus -65.5647 -18.0581 84.7873
lradius 74.8709
lwrist -18.2132
lhand -10.6159 4.81752
lfingers 7.12502
lthumb 15.3905 34.2247
rfemur 8.57557 3.11042 18.8578
rtibia 45.9261
rfoot 30.2135 -12.0055
rtoes -9.30116
lfemur -30.3183 -1.57472 -23.8915
ltibia 36.0586
lfoot 7.85206 15.6438
ltoes -3.23741
